<svg xmlns="http://www.w3.org/2000/svg" viewBox="0 0 64 64" fill="none">
  <circle cx="32" cy="32" r="10" fill="#fff"/>
  <path d="M32 2 L 36 22 L 32 20 L 28 22 Z" fill="#fff" fill-opacity="0.9"/>
  <path d="M32 62 L 36 42 L 32 44 L 28 42 Z" fill="#fff" fill-opacity="0.9"/>
  <path d="M2 32 L 22 28 L 20 32 L 22 36 Z" fill="#fff" fill-opacity="0.9"/>
  <path d="M62 32 L 42 28 L 44 32 L 42 36 Z" fill="#fff" fill-opacity="0.9"/>
  <path d="M10 10 L 26 20 L 22 22 L 20 26 Z" fill="#fff" fill-opacity="0.7"/>
  <path d="M54 10 L 38 20 L 42 22 L 44 26 Z" fill="#fff" fill-opacity="0.7"/>
  <path d="M10 54 L 26 44 L 22 42 L 20 38 Z" fill="#fff" fill-opacity="0.7"/>
  <path d="M54 54 L 38 44 L 42 42 L 44 38 Z" fill="#fff" fill-opacity="0.7"/>
</svg>
